<?xml version="1.0" encoding="UTF-8"?>
<svg width="29px" height="29px" viewBox="0 0 29 29" version="1.1" xmlns="http://www.w3.org/2000/svg" xmlns:xlink="http://www.w3.org/1999/xlink">
    <!-- Generator: Sketch 52.2 (67145) - http://www.bohemiancoding.com/sketch -->
    <title>Facebook Logo</title>
    <desc>Created with Sketch.</desc>
    <g id="Page-1" stroke="none" stroke-width="1" fill="none" fill-rule="evenodd">
        <g id="Facebook-Logo" fill="#FFFFFF">
            <path d="M19,29 L19,18 L24,18 L24,14 L19,14 L19.0000001,13.9725351 C19.0000111,12.249302 19.002093,9.60661335 19.3949339,9.252629 C19.5723522,9.09275938 20.2008278,9.02554428 20.9825538,9 L24,9 L24,5 L19,5 L19,5.00485201 C17.4289866,5.04731716 15,5.46144036 15,9.5 C15,9.66900427 15.0093169,9.83583282 15.0274651,10 L15,10 L15,14 L11,14 L11,18 L15,18 L15,29 L2,29 C0.8954305,29 1.3527075e-16,28.1045695 0,27 L0,2 C-1.3527075e-16,0.8954305 0.8954305,2.02906125e-16 2,0 L27,0 C28.1045695,-2.02906125e-16 29,0.8954305 29,2 L29,27 C29,28.1045695 28.1045695,29 27,29 L19,29 Z"></path>
        </g>
    </g>
</svg>