<?xml version="1.0" encoding="UTF-8"?>
<svg width="29px" height="29px" viewBox="0 0 29 29" version="1.1" xmlns="http://www.w3.org/2000/svg" xmlns:xlink="http://www.w3.org/1999/xlink">
    <!-- Generator: Sketch 52.2 (67145) - http://www.bohemiancoding.com/sketch -->
    <title>Twitter Logo</title>
    <desc>Created with Sketch.</desc>
    <g id="Page-1" stroke="none" stroke-width="1" fill="none" fill-rule="evenodd">
        <g id="Twitter-Logo" fill="#FFFFFF" fill-rule="nonzero">
            <g transform="translate(14.500000, 14.500000) scale(-1, 1) rotate(-180.000000) translate(-14.500000, -14.500000) ">
                <path d="M-5.68434189e-14,14.5 L-5.68434189e-14,-1.42108547e-14 L14.5,-1.42108547e-14 L29,-1.42108547e-14 L29,14.5 L29,29 L14.5,29 L-5.68434189e-14,29 L-5.68434189e-14,14.5 Z M18.8914286,21.7845238 C19.4852381,21.632619 20.0030952,21.3702381 20.3966667,21.0180952 L20.735,20.7280952 L21.287381,20.88 C21.5911905,20.9628571 22.1159524,21.1630952 22.4542857,21.3219048 C22.792619,21.4807143 23.082619,21.605 23.0964286,21.5842857 C23.1930952,21.4945238 22.5716667,20.4933333 22.1711905,20.0859524 L21.7154762,19.6302381 L22.0192857,19.6716667 C22.185,19.6992857 22.5992857,19.8166667 22.937619,19.9340476 C23.2828571,20.0445238 23.5659524,20.1135714 23.5659524,20.0859524 C23.5659524,19.9133333 22.5164286,18.7671429 22.012381,18.3804762 L21.7707143,18.1940476 L21.7292857,17.2757143 C21.5359524,12.9257143 18.7533333,9.10047619 14.7692857,7.69190476 C13.5402381,7.26380952 12.8152381,7.15333333 11.1995238,7.14642857 C9.59071429,7.14642857 8.88642857,7.25690476 7.63666667,7.69190476 C7.00833333,7.91285714 5.43404762,8.67928571 5.44095238,8.76214286 C5.44095238,8.7897619 5.83452381,8.81047619 6.3247619,8.81738095 C7.87833333,8.82428571 9.10047619,9.17642857 10.3571429,9.98428571 C10.5711905,10.122381 10.73,10.2466667 10.7092857,10.267381 C10.6885714,10.2880952 10.4538095,10.3502381 10.1914286,10.4054762 C9.20404762,10.612619 8.1752381,11.3928571 7.69880952,12.297381 C7.36738095,12.932619 7.37428571,12.9533333 7.94047619,12.9188095 C8.19595238,12.905 8.52738095,12.9119048 8.67928571,12.9395238 L8.94857143,12.9878571 L8.57571429,13.1190476 C7.53309524,13.485 6.63547619,14.4309524 6.30404762,15.5011905 C6.13833333,16.0397619 6.10380952,16.8061905 6.25571429,16.6957143 C6.39380952,16.5852381 6.96,16.3919048 7.32595238,16.3228571 L7.66428571,16.2607143 L7.25,16.675 C6.15904762,17.7866667 5.86214286,19.43 6.49047619,20.8592857 L6.65619048,21.2390476 L7.47785714,20.417381 C9.23857143,18.6704762 11.4066667,17.6278571 13.8509524,17.372381 L14.2514286,17.3309524 L14.2514286,18.0697619 C14.2514286,18.9397619 14.4171429,19.5266667 14.8521429,20.2033333 C15.7014286,21.5152381 17.3792857,22.1711905 18.8914286,21.7845238 Z"></path>
            </g>
        </g>
    </g>
</svg>